<svg xmlns="http://www.w3.org/2000/svg" width="780" height="440" viewBox="0 0 780 440"><defs><style>.d{fill:#fff;}.e{fill:#9180f4;}.f{fill:#6f5ed3;}.g{fill:#ff95c1;}.h{fill:#162020;}.i{fill:#5e4eba;}.j{fill:#ffbc00;}.k{fill:#fff8e2;}.l{fill:#ffe99a;}</style></defs><g id="a"><rect class="g" x=".0018" y=".0014" width="780" height="440"></rect></g><g id="b"><g><path class="e" d="M230.1081,117.6781h319.7839c11.0383,0,20,8.9617,20,20v238H210.1081V137.6781c0-11.0383,8.9617-20,20-20Z"></path><path class="h" d="M570.5166,376.3027H209.4834V137.6782c0-11.3726,9.252-20.625,20.625-20.625h319.7832c11.373,0,20.625,9.2524,20.625,20.625v238.6245Zm-359.7832-1.25h358.5332V137.6782c0-10.6836-8.6914-19.375-19.375-19.375H230.1084c-10.6836,0-19.375,8.6914-19.375,19.375v237.3745Z"></path></g><g><rect class="e" x="182.8675" y="374.3007" width="414.265" height="15.7822" rx="4.9223" ry="4.9223"></rect><path class="h" d="M592.21,390.708H187.79c-3.0596,0-5.5479-2.4883-5.5479-5.5469v-5.9385c0-3.0586,2.4883-5.5469,5.5479-5.5469h404.4199c3.0596,0,5.5479,2.4883,5.5479,5.5469v5.9385c0,3.0586-2.4883,5.5469-5.5479,5.5469Zm-404.4199-15.7822c-2.3701,0-4.2979,1.9277-4.2979,4.2969v5.9385c0,2.3691,1.9277,4.2969,4.2979,4.2969h404.4199c2.3701,0,4.2979-1.9277,4.2979-4.2969v-5.9385c0-2.3691-1.9277-4.2969-4.2979-4.2969H187.79Z"></path></g><g><path class="i" d="M425.383,375.0637h0c0,3.6473-4.1627,6.6041-9.2977,6.6041h-52.1706c-5.135,0-9.2977-2.9568-9.2977-6.6041h0"></path><path class="h" d="M416.085,382.293h-52.1699c-5.4717,0-9.9229-3.2432-9.9229-7.2295h1.25c0,3.2969,3.8906,5.9795,8.6729,5.9795h52.1699c4.7822,0,8.6729-2.6826,8.6729-5.9795h1.25c0,3.9863-4.4512,7.2295-9.9229,7.2295Z"></path></g><g><rect class="f" x="226.0226" y="135.1991" width="327.9548" height="222.4999"></rect><path class="h" d="M554.6025,358.3242H225.3975V134.5742h329.2051v223.75Zm-327.9551-1.25h326.7051V135.8242H226.6475v221.25Z"></path></g><g><g><g><rect class="j" x="303.2376" y="104.9" width="173.5249" height="154.5608"></rect><path class="h" d="M477.3877,260.0859h-174.7754V104.2749h174.7754v155.811Zm-173.5254-1.25h172.2754V105.5249h-172.2754v153.311Z"></path></g><g><circle class="k" cx="426.9809" cy="157.6986" r="16.3573"></circle><path class="h" d="M426.9805,174.6812c-9.3633,0-16.9814-7.6182-16.9814-16.9824s7.6182-16.9824,16.9814-16.9824,16.9824,7.6182,16.9824,16.9824-7.6182,16.9824-16.9824,16.9824Zm0-32.7148c-8.6748,0-15.7314,7.0576-15.7314,15.7324s7.0566,15.7324,15.7314,15.7324,15.7324-7.0576,15.7324-15.7324-7.0576-15.7324-15.7324-15.7324Z"></path></g><g><path class="g" d="M476.7469,259.448h-17.8139l-40.9569-46.3081,25.9877-29.5704,32.7831,37.3957s0,39.3085,0,38.4829Z"></path><path class="h" d="M476.7471,260.0732h-18.0957l-41.5078-46.9321,26.8213-30.519,33.4072,38.1074v38.7314h-.625v.6123Zm-17.5332-1.25h16.9082v-37.623l-32.1592-36.6836-25.1533,28.6216,40.4043,45.6851Z"></path></g><g><polygon class="l" points="464.8636 259.4608 361.0045 143.5868 303.3052 209.05 303.2376 259.4608 464.8636 259.4608"></polygon><path class="h" d="M466.2627,260.0859h-163.6514l.0693-51.2725,.1562-.1768,58.1641-65.9907,105.2617,117.4399Zm-162.3994-1.25h159.6006l-102.4551-114.3081-57.0781,64.7583-.0674,49.5498Z"></path></g></g><g><rect class="d" x="303.2376" y="49.917" width="173.5249" height="80.3433"></rect><path class="h" d="M477.3877,130.8853h-174.7754V49.292h174.7754v81.5933Zm-173.5254-1.25h172.2754V50.542h-172.2754v79.0933Z"></path></g><g><rect class="h" x="311.543" y="84.8691" width="148.5723" height="1.25"></rect><rect class="h" x="311.543" y="95.0005" width="152.2637" height="1.25"></rect><rect class="h" x="311.543" y="105.1318" width="129.1934" height="1.25"></rect><rect class="h" x="311.543" y="115.2632" width="29.5293" height="1.25"></rect></g><g><g><circle class="j" cx="320.7513" cy="69.3745" r="10.1509"></circle><path class="h" d="M320.751,80.1504c-5.9414,0-10.7754-4.834-10.7754-10.7759s4.834-10.7759,10.7754-10.7759,10.7764,4.834,10.7764,10.7759-4.834,10.7759-10.7764,10.7759Zm0-20.3018c-5.252,0-9.5254,4.2734-9.5254,9.5259s4.2734,9.5259,9.5254,9.5259,9.5264-4.2734,9.5264-9.5259-4.2734-9.5259-9.5264-9.5259Z"></path></g><rect class="h" x="337.9316" y="75.6411" width="29.5293" height="1.25"></rect><g><rect class="j" x="338.3043" y="64.2696" width="48.9089" height="4.614"></rect><path class="h" d="M387.8379,69.5088h-50.1582v-5.8643h50.1582v5.8643Zm-48.9082-1.25h47.6582v-3.3643h-47.6582v3.3643Z"></path></g></g></g><g><g><rect class="d" x="368.1064" y="303.9027" width="43.7872" height="43.7872" rx="7.83" ry="7.83"></rect><path class="h" d="M404.0635,348.3145h-28.127c-4.6621,0-8.4551-3.793-8.4551-8.4541v-28.1279c0-4.6621,3.793-8.4551,8.4551-8.4551h28.127c4.6621,0,8.4551,3.793,8.4551,8.4551v28.1279c0,4.6611-3.793,8.4541-8.4551,8.4541Zm-28.127-43.7871c-3.9727,0-7.2051,3.2324-7.2051,7.2051v28.1279c0,3.9727,3.2324,7.2041,7.2051,7.2041h28.127c3.9727,0,7.2051-3.2314,7.2051-7.2041v-28.1279c0-3.9727-3.2324-7.2051-7.2051-7.2051h-28.127Z"></path></g><g><path class="h" d="M390,342.7314c-.3447,0-.625-.2803-.625-.625v-32.208c0-.3447,.2803-.625,.625-.625s.625,.2803,.625,.625v32.208c0,.3447-.2803,.625-.625,.625Z"></path><g><line class="d" x1="406.1038" y1="326.0026" x2="373.8962" y2="326.0026"></line><path class="h" d="M406.1035,326.6279h-32.207c-.3447,0-.625-.2803-.625-.625s.2803-.625,.625-.625h32.207c.3447,0,.625,.2803,.625,.625s-.2803,.625-.625,.625Z"></path></g></g></g><g><path class="h" d="M390,297.8145c-.3447,0-.625-.2803-.625-.625v-29.9854c0-.3447,.2803-.625,.625-.625s.625,.2803,.625,.625v29.9854c0,.3447-.2803,.625-.625,.625Z"></path><polygon class="h" points="395.1123 271.3462 394.1968 272.1989 390.0012 267.6841 385.8044 272.1989 384.8889 271.3462 390.0012 265.8487 395.1123 271.3462"></polygon></g></g><g id="c"></g></svg>